    <svg xmlns="http://www.w3.org/2000/svg" viewBox="0 0 795.47 450.58"><defs><style>.cls-1,.cls-2,.cls-3{fill:#231f20;stroke:#231f20;stroke-miterlimit:10;}.cls-1{stroke-width:4.55px;}.cls-2{stroke-width:5.58px;}.cls-3{stroke-width:5.36px;}</style></defs><g id="Layer_2" data-name="Layer 2"><g id="Layer_1-2" data-name="Layer 1"><rect class="cls-1" x="692.68" y="347.79" width="100" height="100" rx="7.5"/><rect class="cls-1" x="462.68" y="2.79" width="100" height="100" rx="7.5"/><path class="cls-2" d="M700.18,2.79a7.5,7.5,0,0,0-7.5,7.5v215a7.5,7.5,0,0,1-7.5,7.5h0a7.5,7.5,0,0,1-7.5-7.5v-215a7.5,7.5,0,0,0-7.5-7.5h-85a7.5,7.5,0,0,0-7.5,7.5v330a7.5,7.5,0,0,1-7.5,7.5h0a7.5,7.5,0,0,1-7.5-7.5v-215a7.5,7.5,0,0,0-7.5-7.5h-85a7.5,7.5,0,0,0-7.5,7.5v215a7.5,7.5,0,0,1-7.5,7.5h0a7.5,7.5,0,0,1-7.5-7.5v-330a7.5,7.5,0,0,0-7.5-7.5h-200a7.5,7.5,0,0,0-7.5,7.5v200a7.5,7.5,0,0,0,7.5,7.5h85a7.5,7.5,0,0,0,7.5-7.5v-100a7.5,7.5,0,0,1,7.5-7.5h0a7.5,7.5,0,0,1,7.5,7.5v230a7.5,7.5,0,0,1-7.5,7.5h0a7.5,7.5,0,0,1-7.5-7.5v-100a7.5,7.5,0,0,0-7.5-7.5h-85a7.5,7.5,0,0,0-7.5,7.5v200a7.5,7.5,0,0,0,7.5,7.5h430a7.5,7.5,0,0,0,7.5-7.5v-100a7.5,7.5,0,0,1,7.5-7.5h100a7.5,7.5,0,0,0,7.5-7.5v-315a7.5,7.5,0,0,0-7.5-7.5Z"/><path class="cls-3" d="M141,2.79H10.18a7.5,7.5,0,0,0-7.5,7.5v200a7.5,7.5,0,0,0,7.5,7.5h85a7.5,7.5,0,0,0,7.5-7.5v-100a7.5,7.5,0,0,1,7.5-7.5h0a7.5,7.5,0,0,1,7.5,7.5v230a7.5,7.5,0,0,1-7.5,7.5h0a7.5,7.5,0,0,1-7.5-7.5v-100a7.5,7.5,0,0,0-7.5-7.5h-85a7.5,7.5,0,0,0-7.5,7.5v200a7.5,7.5,0,0,0,7.5,7.5h200a7.5,7.5,0,0,0,7.5-7.5v-430a7.5,7.5,0,0,0-7.5-7.5Z"/></g></g></svg>